<?xml version="1.0" encoding="UTF-8"?>
<!DOCTYPE svg PUBLIC "-//W3C//DTD SVG 1.1//EN" "http://www.w3.org/Graphics/SVG/1.1/DTD/svg11.dtd">
<svg width="275pt" height="332pt" viewBox="0 0 275 332" version="1.1" xmlns="http://www.w3.org/2000/svg">
<path fill="#a2a2a2" stroke="#a2a2a2" stroke-width="0.09375" opacity="1.00" d=" M 11.5 0.0 L 18.4 0.0 C 24.5 2.1 29.8 7.3 30.0 14.0 C 30.9 22.8 22.7 30.8 14.0 30.0 C 7.3 29.8 2.1 24.5 0.0 18.5 L 0.0 11.6 C 1.8 6.1 6.1 1.9 11.5 0.0 M 10.3 2.2 C 6.4 3.7 3.1 7.1 2.0 11.2 C -0.3 18.3 4.5 26.7 11.9 28.2 C 20.0 30.4 28.9 23.5 28.6 15.0 C 28.9 5.9 18.8 -1.2 10.3 2.2 Z"/>
<path fill="#a2a2a2" stroke="#a2a2a2" stroke-width="0.09375" opacity="1.00" d=" M 42.5 0.0 L 49.4 0.0 C 55.5 2.1 60.8 7.3 61.0 14.0 C 61.9 22.8 53.7 30.8 45.0 30.0 C 36.0 29.7 28.9 20.1 31.4 11.4 C 32.7 5.8 37.4 1.9 42.5 0.0 M 41.3 2.2 C 37.4 3.7 34.1 7.0 33.0 11.1 C 30.6 18.5 35.8 27.3 43.7 28.4 C 52.2 30.2 60.8 22.1 59.5 13.5 C 58.9 5.0 49.2 -0.9 41.3 2.2 Z"/>
<path fill="#a2a2a2" stroke="#a2a2a2" stroke-width="0.09375" opacity="1.00" d=" M 73.5 0.0 L 80.4 0.0 C 86.5 2.1 91.8 7.3 92.0 14.0 C 92.8 22.7 84.7 30.8 76.0 30.0 C 66.7 29.7 59.5 19.4 62.6 10.6 C 64.1 5.3 68.7 1.9 73.5 0.0 M 72.3 2.2 C 68.4 3.7 65.2 7.0 64.0 11.1 C 61.5 18.5 66.8 27.3 74.7 28.4 C 83.2 30.2 91.8 22.1 90.5 13.5 C 89.9 5.0 80.2 -0.9 72.3 2.2 Z"/>
<path fill="#a2a2a2" stroke="#a2a2a2" stroke-width="0.09375" opacity="1.00" d=" M 104.5 0.0 L 111.4 0.0 C 117.5 2.1 122.8 7.3 123.0 14.0 C 123.8 22.4 116.4 30.3 108.0 30.1 C 99.6 30.3 92.2 22.4 93.0 14.0 C 93.2 7.3 98.5 2.1 104.5 0.0 M 103.3 2.2 C 99.3 3.7 96.2 7.0 95.0 11.1 C 92.5 18.5 97.8 27.3 105.7 28.4 C 114.2 30.2 122.8 22.1 121.5 13.5 C 120.9 5.0 111.2 -0.9 103.3 2.2 Z"/>
<path fill="#a4a4a4" stroke="#a4a4a4" stroke-width="0.09375" opacity="1.00" d=" M 138.5 0.0 L 139.6 0.0 C 144.2 10.1 149.2 19.9 154.0 29.9 C 144.1 30.1 134.3 30.0 124.4 29.9 C 128.7 19.8 134.3 10.2 138.5 0.0 Z"/>
<path fill="#a4a4a4" stroke="#a4a4a4" stroke-width="0.09375" opacity="1.00" d=" M 155.2 0.0 L 185.2 0.0 C 179.9 10.0 175.3 20.4 170.1 30.5 C 165.0 20.4 160.1 10.2 155.2 0.0 Z"/>
<path fill="#a3a3a3" stroke="#a3a3a3" stroke-width="0.09375" opacity="1.00" d=" M 198.4 7.3 C 199.5 5.1 200.7 2.8 202.0 0.7 C 203.8 3.4 205.0 6.5 206.8 9.2 C 209.7 10.6 213.1 10.7 216.2 11.4 C 214.8 14.4 211.9 16.4 210.1 19.2 C 209.8 22.6 210.8 26.0 211.1 29.5 C 207.9 28.3 205.0 26.7 202.0 25.2 C 199.0 26.7 196.1 28.3 192.9 29.5 C 193.2 26.0 194.2 22.6 193.9 19.2 C 192.1 16.4 189.2 14.4 187.8 11.4 C 191.2 10.1 196.7 11.4 198.4 7.3 M 198.7 11.8 C 196.5 12.2 194.3 12.7 192.1 13.3 C 193.5 14.9 195.0 16.6 196.5 18.1 C 196.3 20.5 196.1 22.9 196.0 25.3 C 198.0 24.5 200.0 23.6 202.0 22.7 C 204.0 23.5 206.0 24.5 208.0 25.3 C 207.9 22.9 207.7 20.5 207.6 18.1 C 209.1 16.5 210.5 14.9 211.9 13.2 C 209.7 12.7 207.5 12.2 205.3 11.8 C 204.3 9.7 203.2 7.7 202.0 5.7 C 200.9 7.7 199.8 9.7 198.7 11.8 Z"/>
<path fill="#a4a4a4" stroke="#a4a4a4" stroke-width="0.09375" opacity="1.00" d=" M 229.4 7.3 C 230.5 5.1 231.7 2.8 233.0 0.7 C 234.8 3.4 236.0 6.5 237.8 9.2 C 240.7 10.6 244.1 10.7 247.2 11.4 C 245.8 14.4 242.9 16.4 241.1 19.2 C 240.8 22.6 241.8 26.0 242.1 29.5 C 238.9 28.3 236.0 26.7 233.0 25.2 C 230.0 26.7 227.1 28.3 223.9 29.5 C 224.2 26.0 225.2 22.6 224.9 19.2 C 223.1 16.4 220.2 14.4 218.8 11.4 C 222.2 10.1 227.7 11.4 229.4 7.3 M 229.8 11.9 C 227.9 12.4 225.9 12.8 224.0 13.3 C 225.2 15.0 226.6 16.5 227.5 18.3 C 227.9 20.2 227.7 22.2 227.8 24.1 C 231.2 22.7 234.8 22.7 238.2 24.1 C 238.2 22.2 238.1 20.2 238.5 18.3 C 239.4 16.5 240.8 15.0 242.0 13.3 C 240.1 12.8 238.1 12.4 236.2 11.9 C 235.1 10.2 234.1 8.6 233.0 6.9 C 231.9 8.6 230.9 10.2 229.8 11.9 Z"/>
<path fill="#a4a4a4" stroke="#a4a4a4" stroke-width="0.09375" opacity="1.00" d=" M 5.8 20.5 C 8.6 15.0 11.7 9.7 15.0 4.5 C 18.3 9.7 21.4 15.0 24.2 20.5 C 21.0 19.0 18.0 17.1 14.9 15.3 C 11.9 17.0 9.0 19.0 5.8 20.5 Z"/>
<path fill="#a4a4a4" stroke="#a4a4a4" stroke-width="0.09375" opacity="1.00" d=" M 71.5 5.8 C 77.0 8.6 82.3 11.7 87.5 15.0 C 82.3 18.3 77.0 21.4 71.5 24.2 C 73.0 21.0 75.0 18.1 76.7 15.1 C 74.9 12.0 73.0 9.0 71.5 5.8 Z"/>
<path fill="#a4a4a4" stroke="#a4a4a4" stroke-width="0.09375" opacity="1.00" d=" M 97.5 15.0 C 102.7 11.7 108.0 8.6 113.5 5.8 C 112.0 9.0 110.1 12.0 108.3 15.1 C 110.0 18.1 112.0 21.0 113.5 24.2 C 108.0 21.4 102.7 18.3 97.5 15.0 Z"/>
<path fill="#ffd800" stroke="#ffd800" stroke-width="0.09375" opacity="1.00" d=" M 229.8 11.9 C 230.9 10.2 231.9 8.6 233.0 6.9 C 234.1 8.6 235.1 10.2 236.2 11.9 C 238.1 12.4 240.1 12.8 242.0 13.3 C 240.8 15.0 239.4 16.5 238.5 18.3 C 238.1 20.2 238.2 22.2 238.2 24.1 C 234.8 22.7 231.2 22.7 227.8 24.1 C 227.7 22.2 227.9 20.2 227.5 18.3 C 226.6 16.5 225.2 15.0 224.0 13.3 C 225.9 12.8 227.9 12.4 229.8 11.9 Z"/>
<path fill="#a4a4a4" stroke="#a4a4a4" stroke-width="0.09375" opacity="1.00" d=" M 36.8 9.5 C 40.0 11.0 42.9 13.0 45.9 14.7 C 49.0 12.9 52.0 11.0 55.2 9.5 C 52.4 15.0 49.3 20.3 46.0 25.5 C 42.7 20.3 39.6 15.0 36.8 9.5 Z"/>
<path fill="#a4a4a4" stroke="#a4a4a4" stroke-width="0.09375" opacity="1.00" d=" M 0.0 31.0 C 27.3 31.0 54.7 31.0 82.0 31.0 C 82.0 58.3 82.0 85.7 82.0 113.0 C 54.7 113.0 27.3 113.0 0.0 113.0 L 0.0 31.0 M 3.1 34.1 C 3.0 58.7 3.0 83.4 3.1 108.0 C 6.7 99.5 15.1 93.9 24.0 92.0 C 27.2 93.3 29.1 97.2 32.5 98.5 C 39.2 102.4 48.1 101.0 53.6 95.6 C 55.1 94.4 56.2 92.6 58.0 91.9 C 66.7 93.8 75.0 99.0 79.1 107.1 C 79.5 98.1 79.2 89.0 79.3 80.0 C 79.2 64.7 79.5 49.4 79.1 34.1 C 53.8 34.0 28.4 34.0 3.1 34.1 Z"/>
<path fill="#b3d670" stroke="#b3d670" stroke-width="0.09375" opacity="1.00" d=" M 93.6 31.7 C 101.2 29.1 110.2 34.0 112.2 41.7 C 113.5 44.9 112.7 48.4 111.9 51.7 C 116.5 53.0 120.1 56.4 124.0 59.0 C 127.1 61.2 130.6 63.0 133.3 65.8 C 135.8 68.6 131.7 73.5 128.4 71.6 C 124.5 69.3 120.9 66.5 117.0 63.9 C 114.0 61.7 110.2 60.0 108.5 56.4 C 104.8 59.8 99.5 61.7 94.6 60.4 C 89.1 59.1 84.4 54.4 83.3 48.8 C 81.7 41.6 86.5 33.7 93.6 31.7 M 93.4 36.5 C 86.8 39.3 85.3 49.4 91.2 53.8 C 97.0 59.4 108.0 55.1 108.4 47.0 C 109.6 39.2 100.4 32.7 93.4 36.5 Z"/>
<path fill="#f7941d" stroke="#f7941d" stroke-width="0.09375" opacity="1.00" d=" M 157.4 31.4 C 166.1 29.1 173.9 37.6 174.0 45.9 C 174.9 54.4 168.1 63.9 159.0 63.0 C 150.1 62.1 144.8 51.9 146.7 43.6 C 147.7 38.1 151.7 32.8 157.4 31.4 Z"/>
<path fill="#f7941d" stroke="#f7941d" stroke-width="0.09375" opacity="1.00" d=" M 235.1 38.0 C 238.0 34.4 242.3 31.5 247.1 31.2 C 255.0 31.1 262.7 35.4 266.8 42.2 C 273.6 52.9 274.2 66.0 275.0 78.3 L 275.0 79.7 C 274.2 89.5 274.1 99.3 272.2 109.0 C 270.0 103.4 267.2 98.2 263.5 93.5 C 253.2 80.4 239.0 70.7 224.0 63.8 C 226.4 54.7 229.1 45.4 235.1 38.0 Z"/>
<path fill="#ffffff" stroke="#ffffff" stroke-width="0.09375" opacity="1.00" d=" M 3.1 34.1 C 28.4 34.0 53.8 34.0 79.1 34.1 C 79.5 49.4 79.2 64.7 79.3 80.0 C 79.2 89.0 79.5 98.1 79.1 107.1 C 75.0 99.0 66.7 93.8 58.0 91.9 C 56.2 92.6 55.1 94.4 53.6 95.6 C 48.1 101.0 39.2 102.4 32.5 98.5 C 29.1 97.2 27.2 93.3 24.0 92.0 C 15.1 93.9 6.7 99.5 3.1 108.0 C 3.0 83.4 3.0 58.7 3.1 34.1 M 35.3 50.4 C 22.4 54.8 16.8 71.7 22.3 83.7 C 25.2 91.3 32.5 97.9 41.0 97.5 C 48.2 98.0 54.7 93.2 58.2 87.2 C 64.4 77.0 62.7 62.4 53.6 54.4 C 48.9 49.7 41.6 48.5 35.3 50.4 Z"/>
<path fill="#a4a4a4" stroke="#a4a4a4" stroke-width="0.09375" opacity="1.00" d=" M 35.3 50.4 C 41.6 48.5 48.9 49.7 53.6 54.4 C 62.7 62.4 64.4 77.0 58.2 87.2 C 54.7 93.2 48.2 98.0 41.0 97.5 C 32.5 97.9 25.2 91.3 22.3 83.7 C 16.8 71.7 22.4 54.8 35.3 50.4 Z"/>
<path fill="#f7941d" stroke="#f7941d" stroke-width="0.09375" opacity="1.00" d=" M 171.4 59.2 C 177.7 61.1 184.7 64.6 186.1 71.7 C 177.7 72.1 169.2 71.4 160.8 72.1 C 160.4 72.1 159.6 72.1 159.3 72.1 C 151.1 71.5 143.0 72.0 134.8 71.8 C 135.7 64.7 142.9 61.2 149.0 59.3 C 152.0 62.7 156.2 65.8 161.0 65.2 C 165.4 65.3 168.7 62.2 171.4 59.2 Z"/>
<path fill="#b3d670" stroke="#b3d670" stroke-width="0.09375" opacity="1.00" d=" M 194.5 71.5 C 203.0 65.6 213.8 63.8 224.0 63.8 C 239.0 70.7 253.2 80.4 263.5 93.5 C 267.2 98.2 270.0 103.4 272.2 109.0 C 254.9 112.3 237.2 114.2 219.7 111.5 C 211.7 110.1 203.6 107.9 196.9 103.1 C 192.2 99.8 188.4 94.9 187.6 89.2 C 186.1 82.6 188.9 75.3 194.5 71.5 Z"/>
<path fill="#ffffff" stroke="#ffffff" stroke-width="0.09375" opacity="1.00" d=" M 93.6 72.7 C 101.2 70.1 110.2 75.0 112.2 82.7 C 113.5 86.0 112.8 89.5 111.7 92.8 C 116.5 93.8 120.0 97.5 124.0 100.0 C 127.2 102.4 131.2 104.2 133.8 107.4 C 135.3 110.7 130.7 114.7 127.8 112.3 C 122.3 108.7 117.1 104.9 111.7 101.3 C 110.2 100.4 109.3 98.8 108.5 97.3 C 104.8 101.1 99.0 102.9 93.9 101.2 C 88.0 99.6 83.5 94.1 83.0 88.0 C 82.5 81.3 87.1 74.5 93.6 72.7 M 93.4 77.5 C 89.2 79.4 86.6 84.4 87.7 89.0 C 88.6 94.1 93.8 98.0 99.0 97.3 C 104.9 96.9 109.6 90.8 108.3 85.0 C 107.3 78.5 99.3 74.4 93.4 77.5 Z"/>
<path fill="#ffffff" stroke="#ffffff" stroke-width="0.09375" opacity="1.00" d=" M 159.3 72.1 C 159.6 72.1 160.4 72.1 160.8 72.1 C 166.8 73.0 171.9 77.5 173.4 83.4 C 176.4 92.3 170.2 104.5 160.0 104.2 C 150.4 104.2 144.6 93.2 146.8 84.7 C 147.8 78.3 153.0 73.2 159.3 72.1 Z"/>
<path fill="#ffffff" stroke="#ffffff" stroke-width="0.09375" opacity="1.00" d=" M 134.8 112.9 C 135.8 105.9 142.9 102.4 148.9 100.5 C 152.0 103.9 156.1 107.0 161.0 106.4 C 165.2 106.5 168.4 103.6 171.2 100.8 C 177.6 101.7 184.5 106.1 186.1 112.9 C 169.0 113.1 151.9 113.0 134.8 112.9 Z"/>
<path fill="#f7941d" stroke="#f7941d" stroke-width="0.09375" opacity="1.00" d=" M 37.0 117.1 C 41.7 112.8 48.8 114.1 53.5 117.6 C 57.6 120.7 59.9 125.7 61.3 130.6 C 64.6 143.3 63.3 156.5 61.6 169.2 C 55.5 154.2 41.5 144.0 27.1 137.6 C 28.9 130.2 31.3 122.4 37.0 117.1 Z"/>
<path fill="#7eb0b1" stroke="#7eb0b1" stroke-width="0.09375" opacity="1.00" d=" M 71.9 134.9 C 73.6 134.8 75.4 134.8 77.2 134.8 C 77.2 138.2 77.2 141.7 77.3 145.1 C 80.2 143.4 83.7 140.9 87.2 142.7 C 90.7 143.7 91.9 147.7 91.9 151.0 C 92.0 155.9 91.9 160.9 91.9 165.9 C 90.2 165.9 88.5 165.9 86.7 165.9 C 86.5 161.3 86.7 156.6 86.6 152.0 C 86.6 150.0 86.3 147.7 84.6 146.4 C 81.8 145.4 78.4 146.3 77.4 149.4 C 76.9 154.8 77.4 160.4 77.2 165.9 C 75.4 165.9 73.7 165.8 71.9 165.8 C 71.7 155.5 71.8 145.2 71.9 134.9 Z"/>
<path fill="#b3d670" stroke="#b3d670" stroke-width="0.09375" opacity="1.00" d=" M 16.4 138.6 C 19.9 138.0 23.5 137.1 27.1 137.6 C 41.5 144.0 55.5 154.2 61.6 169.2 C 49.0 171.7 35.9 172.8 23.2 170.9 C 16.4 169.7 9.3 167.8 4.4 162.6 C -0.0 158.3 -1.3 150.7 2.7 145.7 C 6.1 141.6 11.3 139.7 16.4 138.6 Z"/>
<path fill="#7eb0b1" stroke="#7eb0b1" stroke-width="0.09375" opacity="1.00" d=" M 98.1 147.3 C 100.0 143.7 104.0 141.9 108.0 142.1 C 111.1 142.2 115.0 142.8 116.2 146.1 C 117.2 152.7 115.3 159.6 117.8 166.0 C 116.3 165.9 114.8 165.8 113.3 165.8 C 112.8 164.9 112.3 164.0 111.7 163.1 C 108.7 164.6 105.2 167.0 101.8 165.2 C 97.0 163.9 95.8 156.6 100.0 153.8 C 103.6 151.6 108.2 151.9 111.9 149.8 C 111.7 144.8 104.8 145.0 102.6 148.5 C 101.1 148.1 99.6 147.8 98.1 147.3 M 103.5 156.6 C 101.2 158.7 104.2 162.6 106.9 161.9 C 110.9 161.9 112.5 157.3 111.2 154.0 C 108.6 154.7 105.6 154.8 103.5 156.6 Z"/>
<path fill="#7eb0b1" stroke="#7eb0b1" stroke-width="0.09375" opacity="1.00" d=" M 150.3 146.4 C 152.6 141.8 158.9 141.5 163.2 142.8 C 165.8 143.2 167.7 145.3 168.3 147.8 C 166.9 148.0 165.5 148.2 164.1 148.5 C 162.6 147.3 161.1 145.7 159.0 146.1 C 157.1 145.9 153.8 146.3 154.5 149.0 C 158.7 152.2 165.4 150.8 168.7 155.4 C 170.7 159.1 168.0 164.0 164.0 165.0 C 158.6 167.2 151.1 165.2 148.9 159.4 C 150.6 159.1 152.2 158.7 153.9 158.5 C 155.5 160.3 157.1 162.6 160.0 161.9 C 162.3 162.4 165.6 159.8 163.4 157.6 C 160.1 156.1 156.2 155.8 152.9 154.2 C 150.1 152.9 148.5 149.1 150.3 146.4 Z"/>
<path fill="#7eb0b1" stroke="#7eb0b1" stroke-width="0.09375" opacity="1.00" d=" M 176.4 146.4 C 180.7 140.0 191.8 140.9 194.7 148.2 C 193.1 148.7 191.5 149.1 189.9 149.5 C 188.9 148.3 187.9 147.1 186.8 146.0 C 184.7 146.2 182.0 145.7 180.9 147.9 C 179.3 150.9 179.3 154.6 180.2 157.9 C 180.6 160.1 182.5 162.3 185.0 161.9 C 187.8 162.4 188.9 159.4 190.1 157.6 C 191.7 157.9 193.4 158.2 195.0 158.5 C 193.6 164.8 185.7 167.7 180.2 164.7 C 173.6 161.6 172.7 152.1 176.4 146.4 Z"/>
<path fill="#7eb0b1" stroke="#7eb0b1" stroke-width="0.09375" opacity="1.00" d=" M 199.2 147.3 C 201.2 143.4 205.7 141.7 209.9 142.1 C 212.8 142.4 216.6 143.2 217.4 146.4 C 218.1 153.0 216.6 159.7 218.9 166.0 C 217.4 165.9 215.9 165.8 214.4 165.7 C 213.9 164.9 213.3 164.0 212.8 163.1 C 209.7 164.6 206.2 167.0 202.8 165.2 C 197.9 163.7 196.9 155.9 201.6 153.5 C 205.0 151.8 209.0 151.6 212.6 150.3 C 213.9 144.9 205.7 144.9 203.7 148.6 C 202.2 148.2 200.7 147.8 199.2 147.3 M 204.5 156.6 C 202.0 159.2 205.9 163.0 208.8 161.8 C 212.6 161.3 213.0 157.2 212.7 154.1 C 209.9 154.6 206.8 154.7 204.5 156.6 Z"/>
<path fill="#7eb0b1" stroke="#7eb0b1" stroke-width="0.09375" opacity="1.00" d=" M 229.9 145.6 C 231.3 144.4 232.5 142.9 234.2 142.2 C 235.6 142.0 237.0 142.7 238.3 143.0 C 237.8 144.5 237.3 146.0 236.9 147.5 C 234.5 147.8 231.3 147.6 230.5 150.4 C 229.4 155.5 229.7 160.7 229.7 165.9 C 227.9 165.8 226.1 165.8 224.4 165.8 C 224.5 158.2 224.5 150.7 224.4 143.1 C 226.8 142.5 229.4 142.7 229.9 145.6 Z"/>
<path fill="#7eb0b1" stroke="#7eb0b1" stroke-width="0.09375" opacity="1.00" d=" M 243.7 144.8 C 247.8 141.0 254.8 141.4 258.3 145.6 C 260.6 148.2 260.6 151.7 260.9 154.9 C 255.8 155.3 250.7 155.0 245.6 155.2 C 245.5 158.2 247.5 162.2 251.0 161.9 C 252.9 162.1 254.0 160.4 255.3 159.4 C 256.9 159.7 258.6 159.9 260.2 160.1 C 257.0 167.9 244.1 167.6 241.4 159.6 C 239.8 154.8 239.8 148.5 243.7 144.8 M 245.6 151.8 C 248.9 151.9 252.1 151.9 255.4 151.9 C 255.8 149.2 254.0 145.8 250.9 146.1 C 247.7 145.6 245.5 149.0 245.6 151.8 Z"/>
<path fill="#7eb0b1" stroke="#7eb0b1" stroke-width="0.09375" opacity="1.00" d=" M 123.7 142.9 C 125.5 142.9 127.3 142.9 129.1 142.9 C 129.3 148.5 128.8 154.1 129.3 159.7 C 130.9 163.3 136.8 162.4 137.6 158.7 C 138.8 153.5 138.0 148.2 138.3 142.9 C 140.1 142.9 141.9 143.0 143.7 143.1 C 143.6 150.7 143.6 158.2 143.7 165.8 C 142.2 165.8 140.7 165.9 139.2 165.9 C 138.8 164.9 138.5 163.9 138.1 162.9 C 135.7 164.4 133.1 166.1 130.1 165.9 C 127.2 165.4 123.9 163.3 123.8 160.0 C 123.4 154.3 123.7 148.6 123.7 142.9 Z"/>
<path fill="#f7941d" stroke="#f7941d" stroke-width="0.09375" opacity="1.00" d=" M 165.4 172.1 C 166.6 170.6 167.7 168.9 169.8 168.7 C 167.5 172.2 166.6 176.4 165.2 180.3 C 165.2 177.5 166.1 174.8 165.4 172.1 Z"/>
<path fill="#f7941d" stroke="#f7941d" stroke-width="0.09375" opacity="1.00" d=" M 169.3 180.3 C 169.7 176.4 170.4 172.5 171.9 168.8 C 171.5 172.7 171.0 176.8 169.3 180.3 Z"/>
<path fill="#f7941d" stroke="#f7941d" stroke-width="0.09375" opacity="1.00" d=" M 227.9 180.4 C 228.8 176.5 228.5 171.9 230.9 168.7 C 230.7 170.2 230.4 171.8 230.2 173.4 C 232.4 173.5 234.6 173.5 236.8 173.3 C 237.2 171.7 237.2 169.8 238.7 168.8 C 237.6 172.7 237.8 177.1 235.6 180.5 C 235.8 178.7 236.1 176.9 236.4 175.0 C 234.2 175.0 232.0 175.0 229.8 175.0 C 229.3 176.8 229.6 179.1 227.9 180.4 Z"/>
<path fill="#f7941d" stroke="#f7941d" stroke-width="0.09375" opacity="1.00" d=" M 205.7 172.5 C 207.8 171.8 211.2 170.5 212.4 172.9 C 211.0 174.4 209.5 175.9 207.9 177.2 C 208.7 175.8 209.6 174.6 210.4 173.3 C 208.9 173.1 207.3 172.8 205.7 172.5 Z"/>
<path fill="#f7941d" stroke="#f7941d" stroke-width="0.09375" opacity="1.00" d=" M 156.7 172.5 C 158.7 172.4 161.7 170.8 162.7 173.4 C 162.9 175.4 162.8 177.7 161.2 179.1 C 159.8 180.6 157.6 179.4 155.9 179.4 C 155.4 180.9 156.2 183.2 154.5 184.1 C 155.2 180.2 156.0 176.4 156.7 172.5 M 159.2 173.1 C 157.0 173.6 155.1 178.4 158.1 178.8 C 161.8 180.2 163.9 172.0 159.2 173.1 Z"/>
<path fill="#f7941d" stroke="#f7941d" stroke-width="0.09375" opacity="1.00" d=" M 174.5 179.5 C 171.1 176.9 174.8 170.3 178.8 172.0 C 180.2 172.9 181.4 175.4 179.8 176.6 C 177.8 176.8 175.7 176.8 173.7 176.9 C 174.7 180.1 178.0 178.4 180.3 178.3 C 178.7 179.4 176.4 181.3 174.5 179.5 M 176.2 173.2 C 173.3 174.6 177.6 176.3 178.9 174.7 C 180.0 173.2 177.2 172.6 176.2 173.2 Z"/>
<path fill="#f7941d" stroke="#f7941d" stroke-width="0.09375" opacity="1.00" d=" M 182.6 178.5 C 181.3 175.9 183.2 173.4 185.0 171.7 C 186.7 172.0 188.3 172.4 190.0 172.5 C 188.5 176.4 189.7 182.5 184.9 184.1 C 183.4 184.0 182.4 182.7 181.5 181.6 C 183.7 182.2 187.4 183.3 187.7 179.8 C 186.0 179.7 183.3 180.5 182.6 178.5 M 185.1 172.8 C 183.6 174.6 182.1 176.9 184.1 178.9 C 184.8 178.9 186.1 178.9 186.8 178.9 C 187.5 177.6 188.7 176.5 188.6 175.0 C 188.8 173.0 186.3 173.2 185.1 172.8 Z"/>
<path fill="#f7941d" stroke="#f7941d" stroke-width="0.09375" opacity="1.00" d=" M 193.4 179.8 C 189.6 177.5 192.6 170.7 196.8 171.8 C 198.8 172.5 198.8 174.8 199.1 176.6 C 196.8 176.7 194.5 176.7 192.3 176.9 C 193.0 180.0 196.3 178.4 198.4 178.3 C 197.0 179.4 195.2 181.0 193.4 179.8 M 192.7 175.1 C 194.6 175.2 196.4 175.2 198.3 175.1 C 197.7 172.0 193.7 172.6 192.7 175.1 Z"/>
<path fill="#f7941d" stroke="#f7941d" stroke-width="0.09375" opacity="1.00" d=" M 214.2 179.8 C 214.5 177.0 214.7 173.8 216.6 171.5 C 216.1 174.0 215.4 176.4 215.0 179.0 C 216.3 178.7 218.0 179.1 219.0 177.9 C 220.5 176.1 220.1 173.3 221.8 171.6 C 221.3 174.3 220.5 176.9 219.8 179.5 C 217.9 179.7 216.1 179.8 214.2 179.8 Z"/>
<path fill="#f7941d" stroke="#f7941d" stroke-width="0.09375" opacity="1.00" d=" M 239.9 173.6 C 241.7 172.3 243.7 171.4 246.0 171.7 C 247.3 174.3 246.3 177.1 246.0 179.7 C 243.7 179.8 240.2 181.1 239.4 178.0 C 239.8 174.7 244.1 175.5 246.3 174.1 C 244.6 172.2 242.0 173.6 239.9 173.6 M 240.4 178.0 C 242.0 180.2 245.9 178.6 245.4 175.7 C 243.8 176.3 240.6 175.8 240.4 178.0 Z"/>
<path fill="#f7941d" stroke="#f7941d" stroke-width="0.09375" opacity="1.00" d=" M 249.3 179.8 C 249.5 176.9 249.7 173.8 251.5 171.5 C 251.2 173.4 250.6 175.3 250.2 177.3 C 249.6 178.9 252.0 178.9 252.9 179.4 C 255.3 177.4 254.7 173.7 256.9 171.8 C 256.4 174.4 255.6 177.0 254.8 179.6 C 253.0 179.7 251.2 179.8 249.3 179.8 Z"/>
<path fill="#f7941d" stroke="#f7941d" stroke-width="0.09375" opacity="1.00" d=" M 259.2 173.3 C 260.5 170.6 263.9 171.7 265.4 173.7 C 263.6 173.6 261.5 172.4 259.9 173.8 C 261.3 174.7 262.6 175.6 264.0 176.4 C 264.0 177.9 263.8 180.1 261.9 180.2 C 259.7 180.8 258.3 178.6 257.6 177.0 C 259.5 178.2 261.5 179.9 263.6 178.0 C 262.6 176.0 259.6 175.6 259.2 173.3 Z"/>
<path fill="#f7941d" stroke="#f7941d" stroke-width="0.09375" opacity="1.00" d=" M 268.1 173.1 C 270.7 169.6 274.8 173.2 274.1 176.6 C 271.9 176.7 269.7 176.7 267.5 176.9 C 267.7 180.3 271.3 178.3 273.4 178.3 C 272.0 179.4 270.3 180.8 268.3 180.0 C 266.4 178.6 266.9 176.2 266.8 174.2 C 269.0 174.9 271.7 176.1 273.6 174.1 C 272.0 172.9 270.0 173.2 268.1 173.1 Z"/>
<path fill="#e89025" stroke="#e89025" stroke-width="0.09375" opacity="0.94" d=" M 206.0 178.5 C 207.4 178.4 208.8 178.9 210.2 179.0 C 211.9 180.0 208.7 180.4 208.1 180.2 C 207.1 180.6 204.2 179.6 206.0 178.5 Z"/>
<path fill="#f7941d" stroke="#f7941d" stroke-width="0.09375" opacity="1.00" d=" M 43.7 193.7 C 46.3 189.8 50.1 186.2 55.0 185.6 C 63.3 184.7 71.2 189.9 75.1 197.0 C 81.4 208.2 82.0 221.4 81.7 234.0 C 81.7 241.4 80.4 248.7 80.0 256.1 L 79.2 256.4 C 71.1 237.3 53.7 223.7 35.1 215.6 C 37.0 207.9 39.3 200.3 43.7 193.7 Z"/>
<path fill="#b3d670" stroke="#b3d670" stroke-width="0.09375" opacity="1.00" d=" M 8.8 221.8 C 16.6 217.1 26.0 215.6 35.1 215.6 C 53.7 223.7 71.1 237.3 79.2 256.4 C 59.2 261.1 37.8 262.1 17.9 256.1 C 16.1 255.5 14.4 254.6 12.7 253.7 C 12.6 253.6 12.4 253.5 12.3 253.4 C 7.0 250.5 2.7 245.5 1.4 239.5 C -0.5 232.8 2.8 225.2 8.8 221.8 Z"/>
<path fill="#505b31" stroke="#505b31" stroke-width="0.09375" opacity="0.70" d=" M 12.3 253.4 C 12.4 253.5 12.6 253.6 12.7 253.7 C 12.6 253.6 12.4 253.5 12.3 253.4 Z"/>
<path fill="#2b2f1b" stroke="#2b2f1b" stroke-width="0.09375" opacity="0.50" d=" M 17.9 256.1 C 37.8 262.1 59.2 261.1 79.2 256.4 L 80.0 256.1 C 79.9 256.6 79.5 257.7 79.3 258.2 C 63.6 261.0 47.4 263.1 31.6 260.3 C 26.9 259.5 22.0 258.7 17.9 256.1 Z"/>
<path fill="#ffffff" stroke="#ffffff" stroke-width="0.09375" opacity="1.00" d=" M 0.0 264.8 C 2.8 264.7 5.6 264.7 8.4 264.7 C 8.9 270.1 8.6 275.5 8.5 281.0 C 12.0 278.1 16.3 275.5 21.0 276.7 C 25.7 277.1 29.0 281.4 29.2 285.9 C 29.7 293.5 29.3 301.1 29.4 308.6 C 26.8 308.6 24.3 308.5 21.7 308.4 C 21.6 302.6 21.7 296.8 21.7 290.9 C 21.6 288.8 21.7 286.5 20.4 284.6 C 18.0 281.3 12.3 281.6 10.1 285.1 C 8.7 287.4 8.7 290.3 8.7 293.0 C 8.6 298.1 8.6 303.3 8.8 308.5 C 5.9 308.6 2.9 308.5 0.0 308.4 L 0.0 264.8 Z"/>
<path fill="#ffffff" stroke="#ffffff" stroke-width="0.09375" opacity="1.00" d=" M 230.2 277.1 C 233.0 275.9 236.1 276.5 238.7 277.9 C 238.0 280.2 237.4 282.5 236.7 284.8 C 234.8 284.2 233.0 283.3 231.0 283.5 C 227.9 284.6 227.1 288.1 226.8 291.0 C 226.3 296.8 226.6 302.7 226.5 308.6 C 223.9 308.6 221.3 308.6 218.8 308.4 C 218.8 297.9 218.8 287.3 218.8 276.8 C 221.1 276.8 223.4 276.8 225.6 276.8 C 225.7 278.2 225.7 279.6 225.8 280.9 C 227.3 279.7 228.6 278.2 230.2 277.1 Z"/>
<path fill="#ffffff" stroke="#ffffff" stroke-width="0.09375" opacity="1.00" d=" M 43.2 278.2 C 47.4 276.0 52.4 276.3 57.0 276.9 C 60.7 277.3 64.4 280.1 64.7 284.0 C 65.3 292.2 63.6 300.7 66.5 308.5 C 64.3 308.5 62.1 308.6 60.0 308.6 C 58.6 308.1 58.1 306.5 57.1 305.5 C 53.2 309.2 47.4 310.5 42.4 308.6 C 36.4 306.1 35.4 296.4 41.0 293.1 C 45.9 290.5 51.7 290.8 56.7 288.6 C 58.9 285.1 54.4 281.5 51.0 282.4 C 48.0 281.7 46.5 284.5 44.8 286.3 C 42.6 286.6 40.4 285.4 38.3 285.0 C 39.1 282.3 40.6 279.6 43.2 278.2 M 45.5 297.5 C 43.5 301.8 48.8 306.1 52.7 303.8 C 56.6 302.3 57.9 298.1 57.3 294.3 C 53.3 294.2 48.5 294.5 45.5 297.5 Z"/>
<path fill="#ffffff" stroke="#ffffff" stroke-width="0.09375" opacity="1.00" d=" M 74.5 276.8 C 77.1 276.8 79.6 276.8 82.2 276.8 C 83.0 284.5 82.0 292.2 82.8 299.9 C 83.9 304.0 89.3 304.8 92.2 302.2 C 95.2 300.2 95.4 296.3 95.5 293.0 C 95.5 287.6 95.5 282.2 95.4 276.8 C 97.9 276.8 100.5 276.8 103.0 276.8 C 103.5 287.4 103.2 298.1 103.1 308.7 C 100.8 308.6 98.5 308.6 96.2 308.5 C 95.9 307.0 95.6 305.5 95.4 303.9 C 92.4 307.1 88.5 309.9 84.0 309.3 C 79.2 309.8 75.1 305.7 74.8 301.0 C 74.3 292.9 74.9 284.8 74.5 276.8 Z"/>
<path fill="#ffffff" stroke="#ffffff" stroke-width="0.09375" opacity="1.00" d=" M 114.8 278.8 C 119.3 275.9 124.9 276.2 130.0 277.0 C 133.9 277.5 136.9 280.6 138.5 284.1 C 135.8 284.9 132.0 287.0 130.0 284.1 C 127.1 280.5 121.3 280.9 118.2 283.9 C 118.5 284.6 119.1 285.9 119.4 286.5 C 125.0 289.8 132.5 288.8 137.5 293.5 C 141.3 297.5 139.6 304.4 135.0 307.0 C 130.6 309.9 124.9 309.6 119.9 309.0 C 115.3 308.4 111.9 304.7 110.1 300.6 C 112.5 300.0 114.9 299.6 117.3 299.2 C 119.3 302.1 122.1 305.1 126.0 304.3 C 128.9 304.7 133.9 301.2 130.6 298.5 C 125.5 295.8 119.1 296.2 114.4 292.6 C 110.3 289.2 110.4 281.9 114.8 278.8 Z"/>
<path fill="#ffffff" stroke="#ffffff" stroke-width="0.09375" opacity="1.00" d=" M 151.7 279.6 C 156.1 276.0 162.4 275.8 167.7 277.3 C 171.8 278.5 174.5 282.3 175.8 286.2 C 173.3 286.4 170.8 286.6 168.3 286.9 C 166.8 284.8 165.0 282.1 162.0 282.4 C 157.6 281.7 154.8 286.1 154.6 289.9 C 154.4 293.9 154.3 298.6 157.4 301.6 C 159.5 304.0 163.6 304.1 165.9 301.9 C 167.2 300.6 167.9 298.9 168.8 297.3 C 171.2 297.5 173.7 297.8 176.0 298.7 C 175.2 303.8 171.0 308.0 165.9 309.0 C 161.3 309.7 156.1 309.8 152.2 306.8 C 148.1 303.6 146.4 298.1 146.6 293.0 C 146.4 288.1 147.7 282.8 151.7 279.6 Z"/>
<path fill="#ffffff" stroke="#ffffff" stroke-width="0.09375" opacity="1.00" d=" M 182.7 285.0 C 183.6 280.9 186.8 277.4 191.1 276.9 C 196.3 276.2 202.3 275.8 206.7 279.3 C 209.8 281.9 209.3 286.4 209.3 290.0 C 209.5 296.2 208.4 302.7 210.9 308.6 C 208.5 308.6 206.2 308.5 203.8 308.6 C 203.1 307.6 202.4 306.5 201.7 305.5 C 197.6 309.2 191.6 310.6 186.5 308.4 C 180.7 305.8 179.8 296.6 185.2 293.2 C 190.3 290.4 196.4 290.7 201.7 288.4 C 202.4 284.6 198.7 281.5 195.0 282.4 C 192.1 281.9 190.6 284.7 189.1 286.6 C 187.0 286.1 184.8 285.6 182.7 285.0 M 189.7 298.1 C 188.3 302.0 193.2 306.0 196.8 303.9 C 200.9 302.6 202.4 298.1 201.6 294.2 C 197.5 294.5 192.3 294.3 189.7 298.1 Z"/>
<path fill="#ffffff" stroke="#ffffff" stroke-width="0.09375" opacity="1.00" d=" M 245.1 281.2 C 249.8 275.4 259.0 275.1 264.8 279.1 C 269.7 282.8 271.3 289.4 270.9 295.2 C 263.6 295.4 256.4 294.8 249.1 295.5 C 249.8 299.2 251.8 303.5 256.1 303.7 C 259.2 304.3 261.2 301.4 262.8 299.3 C 265.3 299.6 267.7 300.0 270.1 300.4 C 268.6 306.0 262.8 309.7 257.0 309.3 C 252.0 309.8 246.2 307.9 243.9 303.0 C 240.4 296.3 240.5 287.3 245.1 281.2 M 249.3 289.1 C 251.4 291.2 254.4 290.2 257.0 290.5 C 259.0 290.3 261.1 290.9 263.0 290.0 C 263.8 285.2 257.7 280.4 253.2 283.0 C 250.9 284.2 250.1 286.8 249.3 289.1 Z"/>
<path fill="#ffffff" stroke="#ffffff" stroke-width="0.09375" opacity="1.00" d=" M 164.2 318.9 C 165.5 317.1 167.0 314.0 169.7 315.9 C 169.1 316.3 167.8 317.1 167.2 317.5 C 167.5 317.9 168.2 318.6 168.6 319.0 C 165.5 320.6 166.4 324.5 165.4 327.3 C 165.0 327.1 164.2 326.6 163.8 326.4 C 164.7 323.9 165.1 321.4 164.2 318.9 Z"/>
<path fill="#ffffff" stroke="#ffffff" stroke-width="0.09375" opacity="1.00" d=" M 169.0 327.1 C 169.8 323.2 169.4 318.8 171.5 315.1 C 171.4 316.7 171.5 318.3 171.7 319.8 C 171.6 320.4 171.5 321.5 171.4 322.0 C 170.7 323.1 170.2 324.5 170.7 325.7 L 171.0 326.7 C 170.5 326.8 169.5 327.0 169.0 327.1 Z"/>
<path fill="#a2a2a2" stroke="#a2a2a2" stroke-width="0.09375" opacity="1.00" d=" M 171.5 315.1 C 173.3 315.3 173.4 319.6 171.7 319.8 C 171.5 318.3 171.4 316.7 171.5 315.1 Z"/>
<path fill="#ffffff" stroke="#ffffff" stroke-width="0.09375" opacity="1.00" d=" M 226.7 327.2 C 227.9 323.1 226.9 318.1 229.8 314.8 C 230.1 316.6 230.2 318.5 230.2 320.3 C 231.7 320.3 233.2 320.2 234.6 320.2 C 234.8 319.3 235.1 317.4 235.3 316.5 C 236.8 319.8 235.6 323.5 235.0 327.0 L 234.1 327.4 C 233.9 325.6 233.9 323.8 233.8 321.9 C 232.3 322.0 230.8 322.0 229.3 322.0 C 229.1 323.3 228.9 324.6 228.7 325.9 L 228.6 326.8 C 228.1 326.9 227.2 327.1 226.7 327.2 Z"/>
<path fill="#a2a2a2" stroke="#a2a2a2" stroke-width="0.09375" opacity="1.00" d=" M 235.0 315.7 C 235.5 315.5 236.5 315.2 237.0 315.0 C 236.7 319.0 237.2 323.6 235.0 327.0 C 235.6 323.5 236.8 319.8 235.3 316.5 L 235.0 315.7 Z"/>
<path fill="#ffffff" stroke="#ffffff" stroke-width="0.09375" opacity="1.00" d=" M 155.9 318.5 C 157.5 318.7 159.1 318.6 160.6 318.4 C 161.0 318.9 161.8 319.8 162.2 320.2 C 162.3 321.6 162.4 322.9 162.5 324.3 C 161.5 325.2 160.6 326.1 159.7 326.9 C 158.5 326.8 157.3 326.7 156.1 326.5 C 155.7 327.5 155.3 328.6 154.8 329.6 L 153.8 330.4 C 153.8 326.3 155.0 322.4 155.9 318.5 M 156.4 324.7 C 157.0 324.8 158.3 325.0 158.9 325.1 C 161.2 324.4 161.0 321.8 159.8 320.1 C 157.0 319.0 156.5 322.7 156.4 324.7 Z"/>
<path fill="#ffffff" stroke="#ffffff" stroke-width="0.09375" opacity="1.00" d=" M 174.7 319.2 C 177.3 317.4 179.8 318.9 181.5 321.0 C 181.2 324.1 177.4 322.6 175.3 323.2 C 175.3 323.6 175.5 324.5 175.6 324.9 C 177.3 324.7 178.9 324.4 180.6 324.3 C 179.2 325.9 177.4 327.0 175.2 327.3 C 173.8 325.4 173.3 323.0 173.5 320.5 C 175.3 321.2 177.2 321.9 179.1 322.2 C 178.6 320.2 176.3 320.0 174.7 319.2 Z"/>
<path fill="#ffffff" stroke="#ffffff" stroke-width="0.09375" opacity="1.00" d=" M 182.0 321.6 C 183.2 319.8 184.8 318.4 187.0 318.0 C 187.0 319.6 185.6 320.3 184.5 321.1 C 183.1 321.8 183.1 323.8 183.9 325.0 L 184.5 324.9 C 185.3 324.9 186.9 324.7 187.6 324.7 C 187.6 322.8 187.5 321.0 187.4 319.2 C 188.0 318.9 189.3 318.3 190.0 318.1 C 190.0 318.7 190.0 320.1 190.0 320.7 C 189.6 323.3 189.3 325.9 188.3 328.3 C 187.1 329.9 184.9 329.9 183.1 330.2 C 182.8 329.7 182.3 328.8 182.1 328.4 C 181.9 328.1 181.6 327.5 181.5 327.2 C 183.7 327.5 186.3 328.6 187.8 326.4 C 186.1 326.3 184.0 327.5 182.7 326.0 C 182.3 324.5 182.2 323.0 182.0 321.6 Z"/>
<path fill="#ffffff" stroke="#ffffff" stroke-width="0.09375" opacity="1.00" d=" M 191.5 322.3 C 192.1 320.3 193.9 318.6 196.0 318.2 C 197.5 318.4 198.6 319.8 199.5 320.9 C 199.4 321.4 199.2 322.3 199.1 322.8 C 197.1 323.0 195.1 323.1 193.1 323.4 C 194.0 324.1 194.8 324.7 195.8 325.2 C 196.1 325.5 196.8 325.9 197.2 326.1 C 195.9 326.5 194.6 326.8 193.3 327.1 C 192.5 325.6 191.4 324.1 191.5 322.3 M 194.2 320.4 C 192.9 321.9 195.8 323.0 196.8 321.8 C 197.9 320.3 195.1 319.1 194.2 320.4 Z"/>
<path fill="#ffffff" stroke="#ffffff" stroke-width="0.09375" opacity="1.00" d=" M 213.2 327.0 C 212.7 324.0 213.1 320.7 214.8 318.1 C 214.7 319.3 214.7 320.4 214.8 321.6 C 214.8 322.5 214.8 324.3 214.9 325.2 C 219.0 326.3 218.8 320.9 219.2 318.2 C 219.6 318.2 220.4 318.3 220.8 318.3 C 220.6 321.3 220.1 324.2 219.4 327.1 C 217.7 326.1 215.8 326.5 214.0 326.8 L 213.2 327.0 Z"/>
<path fill="#a2a2a2" stroke="#a2a2a2" stroke-width="0.09375" opacity="1.00" d=" M 214.8 318.1 C 216.6 318.0 216.6 321.9 214.8 321.6 C 214.7 320.4 214.7 319.3 214.8 318.1 Z"/>
<path fill="#ffffff" stroke="#ffffff" stroke-width="0.09375" opacity="1.00" d=" M 238.4 321.0 C 239.7 318.3 243.3 317.1 245.1 320.1 C 245.0 321.3 244.8 322.6 244.6 323.8 C 244.4 324.7 244.3 325.6 244.1 326.5 C 242.3 326.5 240.6 326.7 238.9 327.1 C 238.4 326.1 237.9 325.1 237.5 324.0 C 238.1 324.3 239.2 324.7 239.8 324.9 C 241.1 325.8 242.9 324.5 242.8 323.0 C 242.9 322.0 243.0 321.0 243.2 319.9 C 241.6 320.3 240.0 320.6 238.4 321.0 Z"/>
<path fill="#ffffff" stroke="#ffffff" stroke-width="0.09375" opacity="1.00" d=" M 246.7 326.5 C 247.5 323.8 247.0 320.6 248.7 318.2 C 248.5 320.0 248.0 322.0 248.6 323.8 C 248.7 325.7 251.2 325.4 252.1 324.2 C 252.6 322.4 252.8 320.6 253.1 318.8 C 253.4 320.1 253.7 321.4 254.0 322.7 C 253.9 324.1 253.7 325.6 253.5 327.0 C 251.3 326.2 248.9 326.6 246.7 326.5 Z"/>
<path fill="#a2a2a2" stroke="#a2a2a2" stroke-width="0.09375" opacity="1.00" d=" M 248.7 318.2 C 250.2 318.9 250.2 323.1 248.6 323.8 C 248.0 322.0 248.5 320.0 248.7 318.2 Z"/>
<path fill="#a2a2a2" stroke="#a2a2a2" stroke-width="0.09375" opacity="1.00" d=" M 253.1 318.8 C 254.8 316.4 256.2 322.5 254.0 322.7 C 253.7 321.4 253.4 320.1 253.1 318.8 Z"/>
<path fill="#ffffff" stroke="#ffffff" stroke-width="0.09375" opacity="1.00" d=" M 257.2 320.2 C 258.1 317.5 263.3 317.7 263.2 321.1 C 261.6 320.6 259.9 320.2 258.2 319.9 C 259.7 321.1 261.3 322.1 262.9 323.0 C 263.0 323.6 263.2 324.8 263.3 325.4 C 261.4 326.4 259.3 327.0 257.2 327.3 C 256.6 326.1 255.9 325.1 255.2 324.0 C 257.1 324.6 259.1 325.2 261.1 325.1 C 260.8 324.7 260.1 324.1 259.8 323.7 C 259.6 323.6 259.4 323.5 259.3 323.4 C 258.0 322.8 256.5 321.8 257.2 320.2 Z"/>
<path fill="#ffffff" stroke="#ffffff" stroke-width="0.09375" opacity="1.00" d=" M 264.7 322.3 C 265.2 320.1 267.1 318.9 269.0 318.0 C 270.4 318.8 271.9 319.4 272.6 320.9 C 272.5 321.4 272.4 322.4 272.3 322.9 C 270.3 323.0 268.4 323.1 266.4 323.4 C 267.2 324.5 268.1 324.9 269.3 324.6 C 269.4 324.6 269.6 324.5 269.7 324.5 C 270.3 324.4 271.5 324.3 272.1 324.2 C 271.8 324.7 271.1 325.5 270.8 326.0 C 269.5 326.4 268.2 326.9 267.0 327.3 C 265.8 326.2 265.0 324.8 264.9 323.2 L 264.7 322.3 M 267.3 320.4 C 266.1 321.9 268.9 323.0 269.9 321.9 C 271.1 320.4 268.3 319.0 267.3 320.4 Z"/>
<path fill="#010000" stroke="#010000" stroke-width="0.09375" opacity="0.05" d=" M 162.2 320.2 C 162.7 319.9 163.7 319.2 164.2 318.9 C 165.1 321.4 164.7 323.9 163.8 326.4 C 162.7 327.1 161.7 328.0 160.6 328.8 C 158.6 328.7 156.6 328.6 154.8 329.6 C 155.3 328.6 155.7 327.5 156.1 326.5 C 157.3 326.7 158.5 326.8 159.7 326.9 C 160.6 326.1 161.5 325.2 162.5 324.3 C 162.4 322.9 162.3 321.6 162.2 320.2 Z"/>
<path fill="#ffffff" stroke="#ffffff" stroke-width="0.09375" opacity="1.00" d=" M 204.7 319.8 C 205.9 317.2 209.3 318.7 211.5 318.4 C 211.3 321.3 208.6 322.9 206.8 324.8 C 208.3 325.1 210.6 324.8 210.2 327.0 C 208.4 327.0 206.6 327.0 204.8 327.0 L 203.6 327.0 C 204.9 324.5 206.8 322.5 208.5 320.3 C 207.5 320.2 205.6 319.9 204.7 319.8 Z"/>
<path fill="#010000" stroke="#010000" stroke-width="0.09375" opacity="0.05" d=" M 156.4 324.7 C 156.5 322.7 157.0 319.0 159.8 320.1 C 161.0 321.8 161.2 324.4 158.9 325.1 C 158.3 325.0 157.0 324.8 156.4 324.7 Z"/>
<path fill="#010000" stroke="#010000" stroke-width="0.09375" opacity="0.05" d=" M 194.2 320.4 C 195.1 319.1 197.9 320.3 196.8 321.8 C 195.8 323.0 192.9 321.9 194.2 320.4 Z"/>
<path fill="#a2a2a2" stroke="#a2a2a2" stroke-width="0.09375" opacity="1.00" d=" M 243.2 319.9 C 243.0 321.0 242.9 322.0 242.8 323.0 C 241.5 322.6 239.5 323.3 239.8 324.9 C 239.2 324.7 238.1 324.3 237.5 324.0 C 239.5 322.8 241.8 322.0 243.2 319.9 Z"/>
<path fill="#010000" stroke="#010000" stroke-width="0.09375" opacity="0.05" d=" M 258.2 319.9 C 259.9 320.2 261.6 320.6 263.2 321.1 C 263.6 321.4 264.3 322.0 264.7 322.3 L 264.9 323.2 C 264.4 323.2 263.4 323.1 262.9 323.0 C 261.3 322.1 259.7 321.1 258.2 319.9 Z"/>
<path fill="#010000" stroke="#010000" stroke-width="0.09375" opacity="0.05" d=" M 267.3 320.4 C 268.3 319.0 271.1 320.4 269.9 321.9 C 268.9 323.0 266.1 321.9 267.3 320.4 Z"/>
<path fill="#010000" stroke="#010000" stroke-width="0.09375" opacity="0.05" d=" M 181.5 321.0 L 182.0 321.6 C 182.2 323.0 182.3 324.5 182.7 326.0 C 184.0 327.5 186.1 326.3 187.8 326.4 C 186.3 328.6 183.7 327.5 181.5 327.2 C 181.6 327.5 181.9 328.1 182.1 328.4 C 180.1 328.3 178.1 328.6 176.2 329.0 C 176.0 328.6 175.5 327.8 175.2 327.3 C 177.4 327.0 179.2 325.9 180.6 324.3 C 178.9 324.4 177.3 324.7 175.6 324.9 C 175.5 324.5 175.3 323.6 175.3 323.2 C 177.4 322.6 181.2 324.1 181.5 321.0 Z"/>
<path fill="#a2a2a2" stroke="#a2a2a2" stroke-width="0.09375" opacity="1.00" d=" M 183.9 325.0 C 183.1 323.8 183.1 321.8 184.5 321.1 C 184.8 322.4 184.8 323.7 184.5 324.9 L 183.9 325.0 Z"/>
<path fill="#010000" stroke="#010000" stroke-width="0.09375" opacity="0.05" d=" M 188.3 328.3 C 189.3 325.9 189.6 323.3 190.0 320.7 C 190.1 324.6 190.9 329.6 187.0 332.0 L 184.3 332.0 C 184.0 331.5 183.4 330.6 183.1 330.2 C 184.9 329.9 187.1 329.9 188.3 328.3 Z"/>
<path fill="#010000" stroke="#010000" stroke-width="0.09375" opacity="0.05" d=" M 199.5 320.9 C 199.7 322.2 199.8 323.4 199.9 324.7 L 198.9 324.4 C 197.8 323.8 196.5 324.3 195.8 325.2 C 194.8 324.7 194.0 324.1 193.1 323.4 C 195.1 323.1 197.1 323.0 199.1 322.8 C 199.2 322.3 199.4 321.4 199.5 320.9 Z"/>
<path fill="#010000" stroke="#010000" stroke-width="0.09375" opacity="0.05" d=" M 272.6 320.9 C 272.8 322.0 273.0 323.0 273.2 324.1 L 272.1 324.2 C 271.5 324.3 270.3 324.4 269.7 324.5 C 269.6 324.5 269.4 324.6 269.3 324.6 C 268.1 324.9 267.2 324.5 266.4 323.4 C 268.4 323.1 270.3 323.0 272.3 322.9 C 272.4 322.4 272.5 321.4 272.6 320.9 Z"/>
<path fill="#a2a2a2" stroke="#a2a2a2" stroke-width="0.09375" opacity="1.00" d=" M 170.7 325.7 C 170.2 324.5 170.7 323.1 171.4 322.0 C 172.6 322.8 172.4 325.7 170.7 325.7 Z"/>
<path fill="#282625" stroke="#282625" stroke-width="0.09375" opacity="0.37" d=" M 229.3 322.0 C 230.8 322.0 232.3 322.0 233.8 321.9 C 233.9 323.8 233.9 325.6 234.1 327.4 C 233.3 326.1 233.4 323.4 231.2 323.8 C 230.3 324.4 229.5 325.2 228.7 325.9 C 228.9 324.6 229.1 323.3 229.3 322.0 Z"/>
<path fill="#a2a2a2" stroke="#a2a2a2" stroke-width="0.09375" opacity="1.00" d=" M 259.3 323.4 C 259.4 323.5 259.6 323.6 259.8 323.7 C 259.6 323.6 259.4 323.5 259.3 323.4 Z"/>
<path fill="#a2a2a2" stroke="#a2a2a2" stroke-width="0.09375" opacity="1.00" d=" M 195.8 325.2 C 196.5 324.3 197.8 323.8 198.9 324.4 C 198.7 324.8 198.3 325.5 198.0 325.9 L 197.2 326.1 C 196.8 325.9 196.1 325.5 195.8 325.2 Z"/>
<path fill="#2c2a29" stroke="#2c2a29" stroke-width="0.09375" opacity="0.42" d=" M 244.1 326.5 C 244.3 325.6 244.4 324.7 244.6 323.8 C 244.7 325.3 244.9 326.9 244.9 328.4 C 242.8 328.4 240.5 328.7 238.9 327.1 C 240.6 326.7 242.3 326.5 244.1 326.5 Z"/>
<path fill="#a2a2a2" stroke="#a2a2a2" stroke-width="0.09375" opacity="1.00" d=" M 269.3 324.6 C 269.4 324.6 269.6 324.5 269.7 324.5 C 269.6 324.5 269.4 324.6 269.3 324.6 Z"/>
<path fill="#100e0d" stroke="#100e0d" stroke-width="0.09375" opacity="0.31" d=" M 263.3 325.4 L 264.1 325.0 C 263.5 326.4 263.0 327.9 261.7 328.8 C 259.9 329.5 258.6 328.1 257.2 327.3 C 259.3 327.0 261.4 326.4 263.3 325.4 Z"/>
<path fill="#141312" stroke="#141312" stroke-width="0.09375" opacity="0.31" d=" M 193.3 327.1 C 194.6 326.8 195.9 326.5 197.2 326.1 L 198.0 325.9 L 199.0 325.7 C 199.0 327.6 197.4 328.4 196.0 329.2 C 195.1 328.5 194.2 327.8 193.3 327.1 Z"/>
<path fill="#010000" stroke="#010000" stroke-width="0.09375" opacity="0.05" d=" M 214.0 326.8 C 215.8 326.5 217.7 326.1 219.4 327.1 C 219.7 327.4 220.2 328.1 220.5 328.4 C 218.7 328.6 216.9 328.8 215.0 329.0 C 214.8 328.5 214.3 327.4 214.0 326.8 Z"/>
<path fill="#181615" stroke="#181615" stroke-width="0.09375" opacity="0.28" d=" M 246.7 326.5 C 248.9 326.6 251.3 326.2 253.5 327.0 C 253.7 327.3 254.2 328.0 254.4 328.3 C 251.7 328.5 248.5 329.0 246.7 326.5 Z"/>
<path fill="#181615" stroke="#181615" stroke-width="0.09375" opacity="0.32" d=" M 267.0 327.3 C 268.2 326.9 269.5 326.4 270.8 326.0 L 271.8 325.7 C 272.6 328.6 268.3 329.8 267.0 327.3 Z"/>
<path fill="#0c0909" stroke="#0c0909" stroke-width="0.09375" opacity="0.32" d=" M 204.8 327.0 C 206.6 327.0 208.4 327.0 210.2 327.0 L 211.0 327.0 C 211.0 327.5 210.9 328.5 210.9 329.0 C 208.8 328.6 204.6 330.4 204.8 327.0 Z"/>
</svg>